<?xml version="1.0" encoding="UTF-8"?>
<svg width="177px" height="55px" viewBox="0 0 177 55" version="1.1" xmlns="http://www.w3.org/2000/svg" xmlns:xlink="http://www.w3.org/1999/xlink">
    <title>CR - Granada</title>
    <g id="CR---Granada" stroke="none" stroke-width="1" fill="none" fill-rule="evenodd">
        <rect fill="#FFFFFF" x="0" y="0" width="177" height="55"></rect>
        <g id="Recurso-2CR-Granada" transform="translate(37.000000, 13.000000)" fill-rule="nonzero">
            <path d="M64.7611765,26.6364706 L65.3329412,26.6364706 C65.5011447,26.602634 65.6755606,26.6481103 65.8058286,26.7597686 C65.9360966,26.8714268 66.0077132,27.0368357 66,27.2082353 L66,27.5894118 C66,27.5894118 66,27.9705882 65.4282353,28.0658824 C65.4282353,28.0658824 64.4752941,28.1611765 64.0164706,27.8752941 C63.4447059,27.5894118 63.1588235,26.9223529 63.1588235,25.5882353 C63.1588235,24.8258824 63.3494118,23.4917647 64.1117647,23.0152941 C64.4929412,22.8247059 65.7317647,22.5388235 66.1129412,23.2058824 C66.3394816,23.5416973 66.4406816,23.9464972 66.3988235,24.3494118 C66.3988235,24.4447059 68.0188235,24.3494118 68.0188235,24.3494118 L67.9235294,21.3952941 L65.16,21.3952941 C65.16,21.3952941 60.7764706,21.3 60.7764706,25.4929412 C60.7764706,25.9694118 61.2529412,31.5917647 68.1141176,29.0223529 L68.1141176,25.4117647 L64.4752941,25.4117647 L64.7611765,26.6364706 Z" id="Path" fill="#6A6F78"></path>
            <path d="M89.8235294,22.6341176 L90.3952941,22.6341176 C90.8717647,22.6341176 90.8717647,23.3011765 90.8717647,23.3011765 L90.8717647,25.5882353 L87.06,21.3 L84.8682353,21.3 L84.8682353,22.7294118 L85.5352941,22.7294118 C85.7258824,22.7294118 85.7258824,23.2058824 85.7258824,23.2058824 L85.7258824,27.7941176 C85.7258824,28.2705882 85.5352941,28.5564706 84.8682353,28.5564706 C84.5421104,28.5628974 84.2430141,28.3759622 84.1058824,28.08 L81.5294118,21.4905882 L78.0988235,21.4905882 L78.0988235,22.8247059 C78.0988235,22.8247059 78.7658824,22.7294118 78.8611765,22.8247059 C79.1470588,23.0152941 78.9564706,23.4917647 78.9564706,23.4917647 L78.0988235,25.6835294 C78.0988235,25.6835294 77.3364706,27.6847059 77.1458824,28.0658824 C77.0365577,28.3420508 76.7755205,28.5285059 76.4788235,28.5423529 C76.3835294,28.5423529 76.2882353,28.5423529 76.0976471,28.3517647 C75.9070588,28.1611765 75.5258824,27.1129412 75.4305882,26.94 C75.3182964,26.5500746 75.12328,26.188933 74.8588235,25.8811765 C74.6682353,25.5 74.1917647,25.4047059 74.3823529,25.4047059 C74.9541176,25.3094118 75.8117647,24.7376471 75.9070588,23.88 C75.9070588,22.8211765 75.7164706,22.4682353 75.3352941,22.0694118 C74.9541176,21.4976471 73.62,21.4023529 73.62,21.4023529 L68.9541176,21.4023529 L68.9541176,22.6411765 L69.5294118,22.6411765 C69.7831393,22.662637 69.9844219,22.8639195 70.0058824,23.1176471 L70.0058824,27.8823529 C70.0058824,27.8823529 70.1011765,28.4541176 69.4341176,28.4541176 L68.9576471,28.4541176 L68.9576471,29.5976471 L73.0588235,29.5976471 L73.0588235,28.4470588 L72.3917647,28.4470588 C72.3917647,28.4470588 71.9152941,28.3517647 71.9152941,27.9705882 L71.9152941,23.2941176 C71.9152941,23.2941176 71.9152941,22.8176471 72.2964706,22.7223529 L73.3552941,22.7223529 C73.6165129,22.8200239 73.8199755,23.0299662 73.9094118,23.2941176 C74.0160687,23.5700521 74.0160687,23.8758302 73.9094118,24.1517647 C73.7449788,24.4787485 73.4233369,24.6976251 73.0588235,24.7305882 L72.2964706,24.8258824 L73.9164706,27.9705882 L74.7741176,29.5905882 L79.92,29.5905882 L79.92,28.4470588 L79.3411765,28.4470588 C79.3411765,28.4470588 78.8647059,28.3517647 78.96,27.9705882 C79.0552941,27.5894118 80.2941176,24.3529412 80.2941176,24.3529412 L80.9611765,25.7647059 L79.9023529,25.7647059 L80.2835294,27.0988235 L81.4270588,27.0988235 L81.7129412,27.7658824 C81.7129412,27.7658824 81.9035294,28.3376471 81.4270588,28.4329412 L80.76,28.4329412 L80.76,29.5764706 L88.4788235,29.5764706 L88.4788235,28.4470588 L87.9176471,28.4470588 C87.6271171,28.3038455 87.4425967,28.0086128 87.4411765,27.6847059 L87.4411765,25.3023529 L91.0588235,29.5905882 L92.4882353,29.5905882 L92.4882353,23.1105882 C92.4952123,22.8846757 92.6505409,22.690515 92.8694118,22.6341176 L93.2505882,22.6341176 L93.2505882,21.3952941 L89.8235294,21.3952941 L89.8235294,22.6341176 Z" id="Path" fill="#6A6F78"></path>
            <path d="M118.030588,27.8823529 L115.743529,21.4023529 L112.312941,21.4023529 L112.312941,22.7294118 L112.884706,22.7294118 C112.884706,22.7294118 113.361176,22.7294118 113.265882,23.3011765 L111.550588,27.8894118 C111.396864,28.1479195 111.162507,28.3487971 110.883529,28.4611765 L110.311765,28.4611765 L110.311765,29.52 L114.218824,29.52 L114.218824,28.5670588 L113.647059,28.5670588 C113.468201,28.519543 113.316374,28.4012999 113.226499,28.2395264 C113.136625,28.077753 113.116441,27.8863752 113.170588,27.7094118 L114.6,24.0882353 L115.362353,25.9941176 L114.123529,25.9941176 L114.409412,27.2329412 L115.552941,27.2329412 L115.838824,28.1858824 C115.838824,28.1858824 115.934118,28.6623529 115.552941,28.6623529 L114.790588,28.6623529 L114.790588,29.7211765 L119.078824,29.7211765 L119.078824,28.4470588 L118.507059,28.4470588 C118.235294,28.3517647 118.030588,27.8823529 118.030588,27.8823529 Z" id="Path" fill="#6A6F78"></path>
            <path d="M106.976471,21.4905882 L101.647059,21.4905882 L101.647059,22.8247059 L102.409412,22.8247059 C102.790588,22.92 102.790588,23.3964706 102.790588,23.3964706 L102.790588,27.9847059 C102.795474,28.188353 102.716725,28.3851121 102.572683,28.5291537 C102.428641,28.6731954 102.231882,28.7519446 102.028235,28.7470588 C101.456471,28.7470588 101.075294,27.9847059 101.075294,27.9847059 L98.7882353,21.5047059 L95.3576471,21.5047059 L95.3576471,22.8388235 L95.9294118,22.8388235 C95.9294118,22.8388235 96.3105882,22.8388235 96.3105882,23.4105882 L94.5952941,27.9988235 C94.4415697,28.2573312 94.2072125,28.4582088 93.9282353,28.5705882 L93.4517647,28.5705882 L93.4517647,29.7141176 L97.1682353,29.7141176 L97.1682353,28.4470588 L96.4941176,28.4470588 C96.3152595,28.399543 96.1634324,28.2812999 96.0735583,28.1195264 C95.9836842,27.957753 95.9634995,27.7663752 96.0176471,27.5894118 L97.3517647,23.9682353 L98.1141176,25.8741176 L96.9705882,25.8741176 L97.2564706,27.1129412 L98.4952941,27.1129412 L98.7811765,28.0658824 C98.7811765,28.0658824 98.8764706,28.5423529 98.4952941,28.5423529 L97.7329412,28.5423529 L97.7329412,29.6858824 L106.588235,29.6858824 C106.778824,29.5905882 107.541176,29.4952941 107.922353,29.3047059 C109.923529,28.4470588 109.923529,26.16 110.018824,25.9694118 C110.177193,24.5793944 109.725305,23.1889701 108.78,22.1576471 C108.266499,21.7466039 107.633856,21.5126126 106.976471,21.4905882 Z M107.738824,26.6364706 C107.574648,27.2776892 107.114449,27.802132 106.5,28.0482353 C106.309412,28.1435294 105.547059,28.3341176 105.165882,28.1435294 C104.931558,28.0025043 104.78724,27.7499477 104.784706,27.4764706 L104.784706,23.6823529 C104.789469,23.406737 104.938079,23.1536996 105.176471,23.0152941 C105.557647,22.92 106.32,23.1105882 106.510588,23.1105882 C106.605882,23.1105882 107.463529,23.3964706 107.749412,24.5223529 C107.93987,25.2146893 107.936206,25.9460766 107.738824,26.6364706 L107.738824,26.6364706 Z" id="Shape" fill="#6A6F78"></path>
            <path d="M56.0611765,16.1788235 L55.1294118,16.1788235 L55.1294118,17.8976471 L61.3764706,17.8976471 L61.3764706,16.1788235 L60.0988235,16.1788235 C59.9294118,16.1788235 59.6082353,15.5541176 59.6082353,15.5541176 L56.6435294,6.35294118 L51.7376471,6.35294118 L51.7376471,8.11764706 L52.5882353,8.11764706 C52.6919456,8.17010646 52.787137,8.23793034 52.8705882,8.31882353 C52.9465763,8.44392816 53.0003123,8.58125354 53.0294118,8.72470588 L50.5305882,15.0776471 C49.6270588,15.3529412 47.9435294,15.7835294 46.7011765,15.7552941 C43.9164706,15.6529412 43.5741176,14.0364706 43.4223529,12.1376471 C43.32,10.8247059 43.8388235,8.76 44.7141176,8.4 C45.6705882,8.00117647 47.3188235,8.26941176 47.3188235,8.26941176 C47.4604708,8.32455798 47.5917429,8.40332121 47.7070588,8.50235294 C47.8215801,8.65625629 47.901082,8.83332882 47.94,9.02117647 L48.0176471,10.1435294 L50.0011765,10.1435294 L50.0788235,6.22235294 C50.0788235,6.22235294 48.6141176,6.18705882 47.6788235,6.20470588 C46.7435294,6.22235294 45.2082353,6.33176471 45.2082353,6.33176471 C45.2082353,6.33176471 40.5882353,6.75882353 40.2670588,11.8341176 C39.9141176,17.6294118 45.5611765,17.8941176 45.5611765,17.8941176 C46.5992057,17.8587147 47.6340881,17.7597055 48.66,17.5976471 L48.66,17.88 L53.9894118,17.88 L53.9894118,16.1647059 C53.7653226,16.2049579 53.5358538,16.2049579 53.3117647,16.1647059 C52.2529412,15.8576471 52.6870588,14.7529412 52.6870588,14.7529412 L54.5823529,9.59294118 L55.5494118,12.5541176 L53.6470588,12.5541176 L54.2117647,14.3541176 L56.0647059,14.3541176 C56.0647059,14.3541176 56.5094118,15.3176471 56.3682353,15.8435294 C56.3435294,15.9988235 56.0611765,16.1788235 56.0611765,16.1788235 Z" id="Path" fill="#6A6F78"></path>
            <path d="M65.2941176,17.4811765 C65.7176471,16.9517647 66.2258824,16.0694118 66.2294118,15.2752941 L66.2682353,9.01411765 C66.3175254,8.82402543 66.4012638,8.64458601 66.5152941,8.48470588 C66.6093636,8.37213867 66.7309475,8.28581411 66.8682353,8.23411765 L67.6623529,8.19529412 L67.68,6.40235294 L62.0894118,6.40235294 L62.0894118,8.20235294 L62.8411765,8.27294118 C63.0221879,8.32863528 63.1885539,8.42387384 63.3282353,8.55176471 C63.4248484,8.70620207 63.4874163,8.87946702 63.5117647,9.06 L63.5294118,15.1305882 C63.4992738,15.6191546 63.4224531,16.103716 63.3,16.5776471 C63.0478169,17.2762722 62.4375653,17.7839151 61.7047059,17.9047059 L61.7047059,19.2070588 C61.7047059,19.2070588 63.9670588,19.1435294 65.2941176,17.4811765 Z" id="Path" fill="#6A6F78"></path>
            <path d="M66.4129412,16.1470588 L66.4129412,17.9117647 L71.7423529,17.9117647 L71.7423529,16.1788235 C71.5184365,16.2209689 71.2886224,16.2209689 71.0647059,16.1788235 C70.0058824,15.8717647 70.44,14.7670588 70.44,14.7670588 L72.3529412,9.62470588 L73.32,12.5823529 L71.4458824,12.5823529 L72.0070588,14.3823529 L73.8635294,14.3823529 C73.8635294,14.3823529 74.3082353,15.3458824 74.1670588,15.8717647 C74.1282353,16.0129412 73.8423529,16.1929412 73.8423529,16.1929412 L72.9141176,16.1929412 L72.9141176,17.9117647 L79.1576471,17.9117647 L79.1576471,16.1929412 L77.8835294,16.1929412 C77.7141176,16.1929412 77.3894118,15.5682353 77.3894118,15.5682353 L74.4282353,6.39176471 L69.5011765,6.39176471 L69.5011765,8.15647059 L70.3376471,8.15647059 C70.4419209,8.20799266 70.5372507,8.2759151 70.62,8.35764706 C70.6984728,8.48060209 70.753517,8.61701606 70.7823529,8.76 L68.0223529,15.7729412 C68.0223529,15.7729412 67.74,16.1576471 67.5776471,16.1576471 L66.4129412,16.1470588 Z" id="Path" fill="#6A6F78"></path>
            <path d="M96.9917647,16.1717647 L95.9611765,16.1717647 C95.3682353,16.1717647 94.6694118,13.9235294 93.8823529,12.6070588 C93.9105882,12.4270588 92.8764706,11.8658824 92.8764706,11.8658824 C94.9941176,11.7741176 95.4529412,9.55411765 95.4564706,9.28588235 C95.4952941,6.38470588 92.5094118,6.40235294 92.5094118,6.40235294 L88.8035294,6.37764706 L85.3976471,6.37764706 L85.3976471,8.14235294 L86.0435294,8.17058824 C86.2235563,8.25542027 86.3910177,8.36468585 86.5411765,8.49529412 C86.9258824,8.89411765 86.8341176,9.88588235 86.8341176,9.88588235 L86.7564706,15.4164706 C86.696127,15.6249181 86.6157524,15.8270367 86.5164706,16.02 C86.4317647,16.1717647 86.0858824,16.2176471 86.0858824,16.2176471 L85.3411765,16.2176471 L85.3411765,17.82 L91.14,17.82 L91.1647059,16.2176471 C90.7697521,16.2409505 90.3734468,16.2124735 89.9858824,16.1329412 C89.7564706,16.0305882 89.6329412,15.4270588 89.6329412,15.4270588 L89.6470588,8.92941176 C89.7188074,8.72956658 89.8277902,8.54513417 89.9682353,8.38588235 C90.4305882,7.97294118 91.6164706,8.01529412 92.1670588,8.53411765 C92.7176471,9.05294118 92.5694118,10.3447059 91.7894118,10.7152941 C91.14,11.0188235 90.0811765,10.8529412 90.0811765,10.8529412 L93.3035294,17.9117647 L96.9952941,17.9117647 L96.9917647,16.1717647 Z" id="Path" fill="#6A6F78"></path>
            <path d="M137.597647,14.2905882 L137.597647,15.3917647 C137.597647,15.3917647 137.297647,16.2105882 136.605882,16.2741176 C135.900612,16.3156761 135.193506,16.3156761 134.488235,16.2741176 C134.345768,16.223154 134.211432,16.1518254 134.089412,16.0623529 C133.982663,15.9478931 133.893459,15.8182506 133.824706,15.6776471 L133.891765,8.87294118 C133.913859,8.74287299 133.958024,8.61753862 134.022353,8.50235294 C134.135017,8.37097328 134.292021,8.28556288 134.463529,8.26235294 L135.261176,8.26235294 L135.261176,6.35294118 L129.645882,6.35294118 L129.645882,8.28 L130.224706,8.28 C130.423385,8.32885999 130.610482,8.41641183 130.775294,8.53764706 C130.878545,8.6513148 130.964199,8.77979707 131.029412,8.91882353 L131.029412,15.8258824 C130.977191,15.9387066 130.905508,16.0414523 130.817647,16.1294118 C130.722048,16.1961801 130.615844,16.2462987 130.503529,16.2776471 L130.334118,16.2776471 L130.334118,16.1964706 L129.056471,16.1964706 C128.887059,16.1964706 128.565882,15.5717647 128.565882,15.5717647 L125.601176,6.39529412 L120.670588,6.39529412 L120.670588,8.16 L121.507059,8.16 C121.610769,8.2124594 121.705961,8.28028328 121.789412,8.36117647 C121.865739,8.48484204 121.919514,8.62107196 121.948235,8.76352941 L119.188235,15.7694118 C119.188235,15.7694118 118.877647,15.9705882 118.602353,16.1717647 L117.585882,16.1717647 C116.989412,16.1717647 116.294118,13.9235294 115.507059,12.6070588 C115.535294,12.4270588 114.501176,11.8658824 114.501176,11.8658824 C116.618824,11.7741176 117.077647,9.55411765 117.081176,9.28588235 C117.12,6.38470588 114.134118,6.40235294 114.134118,6.40235294 L110.424706,6.37764706 L107.022353,6.37764706 L107.022353,6.37764706 L102.811765,6.35294118 L102.811765,7.95882353 C103.521336,7.96052736 104.100436,8.52710638 104.117647,9.23647059 C104.213732,10.8503358 104.213732,12.4684877 104.117647,14.0823529 C103.704706,15.6423529 103.058824,15.8152941 102.031765,15.8894118 C101.124706,15.9564706 100.203529,15.4729412 99.9317647,14.0576471 C99.9317647,14.0576471 99.8117647,9.32470588 100.111765,8.74235294 C100.344577,8.2699289 100.831166,7.97632109 101.357647,7.99058824 L101.357647,6.31764706 L95.7847059,6.29647059 L95.76,7.93058824 L96.3529412,7.93058824 C96.7830443,8.07582985 97.0961908,8.44888262 97.1647059,8.89764706 L97.1647059,14.0576471 C97.14,16.6411765 98.8235294,18.0317647 101.809412,17.9964706 C103.750588,17.9717647 105.903529,17.0894118 105.949412,14.2376471 L106.037647,9.07764706 C106.037647,9.07764706 106.104706,8.14941176 106.651765,8.08235294 L107.004706,8.06117647 L107.004706,8.11764706 L107.650588,8.14588235 C107.829806,8.23023193 107.996166,8.33955416 108.144706,8.47058824 C108.532941,8.86941176 108.441176,9.86117647 108.441176,9.86117647 L108.363529,15.3917647 C108.301433,15.5996074 108.221122,15.8015668 108.123529,15.9952941 C108.038824,16.1470588 107.692941,16.1929412 107.692941,16.1929412 L106.948235,16.1929412 L106.948235,17.7952941 L112.743529,17.7952941 L112.771765,16.1929412 C112.376811,16.2162446 111.980506,16.1877676 111.592941,16.1082353 C111.363529,16.0058824 111.222353,15.4023529 111.222353,15.4023529 L111.243529,8.94 C111.315278,8.74015482 111.424261,8.5557224 111.564706,8.39647059 C112.027059,7.98352941 113.212941,8.02588235 113.763529,8.54470588 C114.314118,9.06352941 114.165882,10.3552941 113.382353,10.7258824 C112.736471,11.0294118 111.677647,10.8635294 111.677647,10.8635294 L114.9,17.9223529 L117.568235,17.9223529 L122.894118,17.9223529 L122.894118,16.1788235 C122.670201,16.2209689 122.440387,16.2209689 122.216471,16.1788235 C121.157647,15.8717647 121.591765,14.7670588 121.591765,14.7670588 L123.487059,9.60705882 L124.454118,12.5647059 L122.58,12.5647059 L123.144706,14.3647059 L124.997647,14.3647059 C124.997647,14.3647059 125.442353,15.3282353 125.301176,15.8541176 C125.262353,15.9952941 124.98,16.1752941 124.98,16.1752941 L124.048235,16.1752941 L124.048235,17.8941176 L139.595294,17.8941176 L139.627059,14.2729412 L137.597647,14.2905882 Z" id="Path" fill="#6A6F78"></path>
            <path d="M30.6352941,5.80588235 L21.6564706,14.76 L21.6564706,0.0211764706 L18,3.69882353 L14.2164706,0 L14.2164706,14.6047059 L5.21294118,5.80588235 L5.21294118,11.0470588 L0,11.0470588 L11.6929412,22.5882353 C12.6635294,23.6188235 13.56,24.5223529 14.0258824,26.5447059 C14.1135699,27.0794721 14.16545,27.619497 14.1811765,28.1611765 L15.6705882,28.1611765 C15.6671,27.6323015 15.6198802,27.1046209 15.5294118,26.5835294 C15.2182685,24.7964984 14.3541361,23.1521779 13.0588235,21.8823529 L9.6,18.4376471 L11.7176471,18.4376471 L13.9094118,20.5552941 C14.4543383,21.1101033 14.9558153,21.7059759 15.4094118,22.3376471 C15.6766279,22.7053644 15.906027,23.0991267 16.0941176,23.5129412 C16.5769491,24.4707035 16.9056943,25.4986277 17.0682353,26.5588235 C17.0682353,26.5588235 17.1458824,27.2047059 17.1564706,28.1611765 L18.6564706,28.1611765 C18.6768039,27.6278243 18.6472637,27.0937388 18.5682353,26.5658824 C18.3270814,24.7163901 17.6483031,22.9510823 16.5882353,21.4164706 C16.1934504,20.86524 15.7530801,20.3481296 15.2717647,19.8705882 L12.66,17.2941176 L12.66,15.1764706 L16.4294118,18.8576471 C17.5500523,20.0528866 18.4530629,21.434875 19.0976471,22.9411765 C19.618908,24.1011067 19.9524816,25.3365202 20.0858824,26.6011765 L20.1705882,28.1788235 L21.6458824,28.1788235 C21.6458824,28.1788235 21.7023529,27.12 21.7870588,26.7 C21.8744908,26.2602391 22.0008713,25.8291281 22.1647059,25.4117647 C22.9588235,23.5023529 23.9682353,22.6623529 28.9729412,17.7635294 C31.9552941,14.8517647 35.2623529,11.6717647 35.8976471,11.0329412 L30.6352941,11.0329412 L30.6352941,5.80588235 Z M6.73764706,9.3 L8.23411765,10.7117647 L8.23411765,12.9141176 L6.73764706,11.3823529 L6.73764706,9.3 Z M3.63529412,12.5152941 L5.71058824,12.5152941 L7.23176471,13.9905882 L5.14941176,13.9905882 L3.63529412,12.5152941 Z M8.14235294,16.9588235 L6.64588235,15.4835294 L8.71764706,15.4835294 L10.1858824,16.9588235 L8.14235294,16.9588235 Z M11.1917647,15.8152941 L9.71294118,14.3682353 L9.71294118,12.2505882 L11.1917647,13.7011765 L11.1917647,15.8152941 Z M17.1917647,17.58 L15.72,16.1682353 L15.72,11.9435294 L17.1917647,13.3870588 L17.1917647,17.58 Z M17.1917647,11.2694118 L15.72,9.81176471 L15.72,7.8 L17.1917647,9.21176471 L17.1917647,11.2694118 Z M17.1917647,7.06588235 L15.72,5.62235294 L15.72,3.52941176 L17.1917647,4.99411765 L17.1917647,7.06588235 Z M29.1105882,9.31058824 L29.1105882,11.4035294 L27.5682353,12.9388235 L27.5682353,10.8352941 L29.1105882,9.31058824 Z M26.1176471,12.3317647 L26.1176471,14.4105882 L24.6352941,15.8823529 L24.6352941,13.8 L26.1176471,12.3317647 Z M18.7058824,4.98352941 L20.2305882,3.52941176 L20.2305882,5.62588235 L18.7058824,7.05882353 L18.7058824,4.98352941 Z M18.7058824,9.21882353 L20.22,7.72235294 L20.22,9.84 L18.7058824,11.2623529 L18.7058824,9.21882353 Z M18.7058824,13.4047059 L20.22,11.9611765 L20.22,16.1505882 L18.7058824,17.5623529 L18.7058824,13.4047059 Z M19.7364706,20.8235294 L18.8576471,19.5317647 L23.1564706,15.3352941 L23.1564706,17.3505882 L19.7364706,20.8235294 Z M23.5235294,21.1129412 C21.6211765,22.8776471 21.12,24.1694118 21.1129412,24.1588235 L20.4705882,22.3764706 C20.4705882,21.9882353 24.0988235,18.4341176 24.0988235,18.4341176 L26.2588235,18.4341176 C26.2588235,18.4341176 24.6176471,20.1176471 23.5235294,21.1235294 L23.5235294,21.1129412 Z M27.7588235,16.9482353 L25.6411765,16.9482353 L27.1235294,15.4729412 L29.2411765,15.4729412 L27.7588235,16.9482353 Z M32.2552941,12.5152941 L30.8011765,13.9905882 L28.5882353,13.9905882 L30.1235294,12.5152941 L32.2552941,12.5152941 Z" id="Shape" fill="#C6CCD5"></path>
        </g>
    </g>
</svg>